<?xml version="1.0" encoding="utf-8"?>
<!-- Generator: Adobe Illustrator 24.3.0, SVG Export Plug-In . SVG Version: 6.00 Build 0)  -->
<svg version="1.1" id="Layer_1" xmlns="http://www.w3.org/2000/svg" xmlns:xlink="http://www.w3.org/1999/xlink" x="0px" y="0px"
	 viewBox="0 0 676.8 676.8" style="enable-background:new 0 0 676.8 676.8;" xml:space="preserve">
<style type="text/css">
	.st0{fill:#232323;}
	.st1{fill:#0099FF;}
	.st2{fill:#B80101;}
</style>
<g id="Layer_2_1_">
	<g id="Layer_1-2">
		<circle class="st0" cx="338.4" cy="338.4" r="289.7"/>
		<polygon class="st1" points="136.9,366.2 136.9,284.1 188.9,232.1 278.1,296.6 167,315.7 		"/>
		<polygon class="st2" points="251.9,187.4 232.3,243.4 201.2,220.9 210.2,200.8 		"/>
		<polygon class="st1" points="267.7,339 281.4,377.4 286.9,445.3 276.9,528.4 329.2,465.2 336,427.6 328.6,380.4 		"/>
		<polygon class="st2" points="265.4,380.9 210.2,449.7 134.6,488.7 242.3,490.8 270.5,443.5 		"/>
		<polygon class="st2" points="284.5,332.2 343.5,370.8 360.5,427.3 376.4,532 416.3,417.9 393.3,357.4 		"/>
		<polygon class="st1" points="314.4,322.4 405.4,343.6 445.2,401.2 465.4,491.9 497.9,387.8 476.8,336.6 440.9,321.2 		"/>
		<polygon class="st2" points="318.8,306.1 460.2,282.1 504.4,286.6 542.1,387.2 489.4,322.3 443.8,306.1 		"/>
		<path class="st1" d="M406,215.4l59.1-46.6l-106.6,12.8l10-35.2l-97.1,35.4L246,253.4c3.6-3.3,45.7-38.1,45.7-38.1h45.1l-27.5,26
			l-57.5,16.3l48.5,35.1l212.2-36L406,215.4z M398.8,264l-14.4-6.7L373.5,269l1.9-15.8l-14.4-6.7l15.6-3.1l1.9-15.8l7.7,13.9
			l15.6-3.1L391,250.2L398.8,264z"/>
	</g>
</g>
</svg>
