<svg xmlns="http://www.w3.org/2000/svg" viewBox="0 0 437.68 151.96"><defs><style>.cls-1{font-size:58.18px;font-family:CourierNewPS-BoldMT, Courier New;font-weight:700;}.cls-1,.cls-2{fill:#797a7a;}</style></defs><g id="Layer_2" data-name="Layer 2"><g id="Layer_1-2" data-name="Layer 1"><text class="cls-1" transform="translate(166.47 110.63)">EYE</text><path class="cls-2" d="M63.39,0V11.43H14v8.39H56.79V31.06H14V39.9H63.39V51.32H0V0Z"/><path class="cls-2" d="M133,0l32.59,51.32H150.48L143.4,40.08H108.67l-7.16,11.24H86.45L119.05,0ZM115.56,29.22h20.9L126.05,12.74Z"/><path class="cls-2" d="M256.9,0V11.43H206.21a6.4,6.4,0,0,0-4.68,1.76,5.32,5.32,0,0,0-1.91,4.23V33.9a5.65,5.65,0,0,0,1.91,4.27,7,7,0,0,0,4.68,1.73h38.47v-8H227.19V21.09h31.5V51.32h-56.6a16.79,16.79,0,0,1-11.69-4.38,13.83,13.83,0,0,1-4.79-10.6V15a13.85,13.85,0,0,1,4.79-10.6A16.79,16.79,0,0,1,202.09,0Z"/><path class="cls-2" d="M287.65,51.32V0h14V39.9h46.72V51.32Z"/><path class="cls-2" d="M437.68,0V11.43H388.31v8.39h42.78V31.06H388.31V39.9h49.37V51.32H374.3V0Z"/></g></g></svg>